solid Exported from Blender-2.79 (sub 0)
facet normal 0.000000 0.000000 -1.000000
outer loop
vertex 370.443359 629.039001 163.002365
vertex 370.443359 459.068909 163.002365
vertex 200.473297 459.068939 163.002365
endloop
endfacet
facet normal 0.000000 0.000000 -1.000000
outer loop
vertex 200.473297 459.068939 163.002365
vertex 200.473343 629.039001 163.002365
vertex 370.443359 629.039001 163.002365
endloop
endfacet
facet normal 0.000000 0.000000 1.000000
outer loop
vertex 370.443420 629.038940 332.972412
vertex 200.473328 629.039001 332.972412
vertex 200.473282 459.068970 332.972412
endloop
endfacet
facet normal 0.000000 0.000000 1.000000
outer loop
vertex 200.473282 459.068970 332.972412
vertex 370.443329 459.068878 332.972412
vertex 370.443420 629.038940 332.972412
endloop
endfacet
facet normal 1.000000 -0.000001 -0.000000
outer loop
vertex 370.443359 629.039001 163.002365
vertex 370.443420 629.038940 332.972412
vertex 370.443329 459.068878 332.972412
endloop
endfacet
facet normal 1.000000 0.000000 0.000000
outer loop
vertex 370.443329 459.068878 332.972412
vertex 370.443359 459.068909 163.002365
vertex 370.443359 629.039001 163.002365
endloop
endfacet
facet normal -0.000001 -1.000000 -0.000001
outer loop
vertex 370.443359 459.068909 163.002365
vertex 370.443329 459.068878 332.972412
vertex 200.473282 459.068970 332.972412
endloop
endfacet
facet normal -0.000000 -1.000000 0.000001
outer loop
vertex 200.473282 459.068970 332.972412
vertex 200.473297 459.068939 163.002365
vertex 370.443359 459.068909 163.002365
endloop
endfacet
facet normal -1.000000 0.000000 -0.000000
outer loop
vertex 200.473297 459.068939 163.002365
vertex 200.473282 459.068970 332.972412
vertex 200.473328 629.039001 332.972412
endloop
endfacet
facet normal -1.000000 0.000000 -0.000000
outer loop
vertex 200.473328 629.039001 332.972412
vertex 200.473343 629.039001 163.002365
vertex 200.473297 459.068939 163.002365
endloop
endfacet
facet normal 0.000000 1.000000 0.000001
outer loop
vertex 370.443420 629.038940 332.972412
vertex 370.443359 629.039001 163.002365
vertex 200.473343 629.039001 163.002365
endloop
endfacet
facet normal 0.000000 1.000000 0.000000
outer loop
vertex 200.473343 629.039001 163.002365
vertex 200.473328 629.039001 332.972412
vertex 370.443420 629.038940 332.972412
endloop
endfacet
endsolid Exported from Blender-2.79 (sub 0)
