solid Exported from Blender-2.79 (sub 0)
facet normal -0.433013 0.500000 -0.750000
outer loop
vertex 34.150635 68.301270 -40.849365
vertex 9.150633 -18.301270 -84.150635
vertex -77.451904 -18.301262 -34.150627
endloop
endfacet
facet normal -0.433013 0.500000 -0.750000
outer loop
vertex -77.451904 -18.301262 -34.150627
vertex -52.451889 68.301285 9.150635
vertex 34.150635 68.301270 -40.849365
endloop
endfacet
facet normal 0.433013 -0.500000 0.750000
outer loop
vertex 77.451920 18.301247 34.150612
vertex -9.150629 18.301270 84.150635
vertex -34.150642 -68.301254 40.849380
endloop
endfacet
facet normal 0.433013 -0.500000 0.750000
outer loop
vertex -34.150642 -68.301254 40.849380
vertex 52.451874 -68.301300 -9.150635
vertex 77.451920 18.301247 34.150612
endloop
endfacet
facet normal 0.866025 -0.000000 -0.500000
outer loop
vertex 34.150635 68.301270 -40.849365
vertex 77.451920 18.301247 34.150612
vertex 52.451874 -68.301300 -9.150635
endloop
endfacet
facet normal 0.866026 -0.000000 -0.500000
outer loop
vertex 52.451874 -68.301300 -9.150635
vertex 9.150633 -18.301270 -84.150635
vertex 34.150635 68.301270 -40.849365
endloop
endfacet
facet normal -0.250001 -0.866025 -0.433013
outer loop
vertex 9.150633 -18.301270 -84.150635
vertex 52.451874 -68.301300 -9.150635
vertex -34.150642 -68.301254 40.849380
endloop
endfacet
facet normal -0.250000 -0.866025 -0.433013
outer loop
vertex -34.150642 -68.301254 40.849380
vertex -77.451904 -18.301262 -34.150627
vertex 9.150633 -18.301270 -84.150635
endloop
endfacet
facet normal -0.866025 0.000000 0.500000
outer loop
vertex -77.451904 -18.301262 -34.150627
vertex -34.150642 -68.301254 40.849380
vertex -9.150629 18.301270 84.150635
endloop
endfacet
facet normal -0.866025 0.000000 0.500000
outer loop
vertex -9.150629 18.301270 84.150635
vertex -52.451889 68.301285 9.150635
vertex -77.451904 -18.301262 -34.150627
endloop
endfacet
facet normal 0.250000 0.866025 0.433013
outer loop
vertex 77.451920 18.301247 34.150612
vertex 34.150635 68.301270 -40.849365
vertex -52.451889 68.301285 9.150635
endloop
endfacet
facet normal 0.250000 0.866025 0.433013
outer loop
vertex -52.451889 68.301285 9.150635
vertex -9.150629 18.301270 84.150635
vertex 77.451920 18.301247 34.150612
endloop
endfacet
endsolid Exported from Blender-2.79 (sub 0)
